<svg xmlns="http://www.w3.org/2000/svg" xmlns:xlink="http://www.w3.org/1999/xlink" width="500" zoomAndPan="magnify" viewBox="0 0 375 374.999991" height="500" preserveAspectRatio="xMidYMid meet" version="1.0"><defs><g/></defs><g fill="rgb(0%, 0%, 0%)" fill-opacity="1"><g transform="translate(0.0000045, 341.695371)"><g><path d="M 82.09375 3.0625 C 58.425781 3.0625 40.800781 -5.273438 29.21875 -21.953125 C 17.632812 -38.628906 11.84375 -63.894531 11.84375 -97.75 L 11.84375 -239.046875 C 11.84375 -269.335938 18.585938 -292.25 32.078125 -307.78125 C 45.566406 -323.3125 65.675781 -331.078125 92.40625 -331.078125 C 114.050781 -331.078125 130.851562 -326.75 142.8125 -318.09375 C 154.78125 -309.4375 163.054688 -296.832031 167.640625 -280.28125 C 172.222656 -263.738281 174.515625 -242.484375 174.515625 -216.515625 L 110.359375 -216.515625 L 110.359375 -245.921875 C 110.359375 -253.804688 109.273438 -259.910156 107.109375 -264.234375 C 104.941406 -268.566406 101.0625 -270.734375 95.46875 -270.734375 C 82.988281 -270.734375 76.75 -262.585938 76.75 -246.296875 L 76.75 -87.453125 C 76.75 -77.515625 78.019531 -70 80.5625 -64.90625 C 83.113281 -59.820312 87.570312 -57.28125 93.9375 -57.28125 C 100.300781 -57.28125 104.753906 -59.820312 107.296875 -64.90625 C 109.847656 -70 111.125 -77.515625 111.125 -87.453125 L 111.125 -134.421875 L 93.5625 -134.421875 L 93.5625 -190.921875 L 173.75 -190.921875 L 173.75 0 L 147.390625 0 L 136.328125 -27.5 C 124.617188 -7.125 106.539062 3.0625 82.09375 3.0625 Z M 82.09375 3.0625 "/></g></g></g><g fill="rgb(0%, 0%, 0%)" fill-opacity="1"><g transform="translate(185.201659, 341.695371)"><g><path d="M 94.703125 3.0625 C 38.953125 3.0625 11.078125 -25.832031 11.078125 -83.625 L 11.078125 -195.890625 C 11.078125 -222.367188 18.519531 -243.4375 33.40625 -259.09375 C 48.300781 -274.75 68.734375 -282.578125 94.703125 -282.578125 C 120.671875 -282.578125 141.097656 -274.75 155.984375 -259.09375 C 170.878906 -243.4375 178.328125 -222.367188 178.328125 -195.890625 L 178.328125 -83.625 C 178.328125 -25.832031 150.453125 3.0625 94.703125 3.0625 Z M 94.703125 -48.5 C 100.046875 -48.5 103.988281 -50.40625 106.53125 -54.21875 C 109.082031 -58.039062 110.359375 -63.257812 110.359375 -69.875 L 110.359375 -206.578125 C 110.359375 -222.878906 105.140625 -231.03125 94.703125 -231.03125 C 84.265625 -231.03125 79.046875 -222.878906 79.046875 -206.578125 L 79.046875 -69.875 C 79.046875 -63.257812 80.316406 -58.039062 82.859375 -54.21875 C 85.410156 -50.40625 89.359375 -48.5 94.703125 -48.5 Z M 94.703125 -48.5 "/></g></g></g></svg>